<?xml version="1.0" encoding="iso-8859-1"?>
<!-- Uploaded to: SVG Repo, www.svgrepo.com, Generator: SVG Repo Mixer Tools -->
<svg height="800px" width="800px" version="1.1" id="Layer_1" xmlns="http://www.w3.org/2000/svg" xmlns:xlink="http://www.w3.org/1999/xlink" 
	 viewBox="0 0 512 512" xml:space="preserve">
<path style="fill:#0084FF;" d="M438.851,458.099l58.475-103.955c2.896-5.15,4.298-11.917,4.224-18.668H157.262L87.034,470.858
	c5.718,3.629,12.319,5.902,18.357,5.902h301.544C418.713,476.76,433.073,468.364,438.851,458.099z"/>
<path style="fill:#1EB615;" d="M245.565,165.934L175.321,40.67c-5.849,3.336-10.979,7.931-13.981,12.987L15.434,299.393
	c-6.015,10.129-6.625,27.037-1.356,37.573l60.318,120.641c2.57,5.136,7.207,9.806,12.643,13.255L245.565,165.934z"/>
<path style="fill:#FFAF00;" d="M340.051,335.476H501.55c-0.073-6.709-1.605-13.4-4.583-18.46L342.074,53.689
	c-5.977-10.147-20.495-18.448-32.271-18.448h-116.11c-5.904,0-12.506,2.082-18.381,5.434L340.051,335.476z"/>
<path d="M511.997,335.361L511.997,335.361c0,0,0-0.001,0-0.002c-0.096-8.808-2.237-17.203-6.024-23.64L351.077,48.386
	c-7.793-13.23-25.923-23.594-41.273-23.594h-116.11c-7.498,0-15.864,2.418-23.558,6.807c-0.01,0.006-0.02,0.014-0.029,0.019
	c-7.644,4.368-13.946,10.299-17.749,16.704L6.451,294.059c-7.895,13.295-8.633,33.75-1.718,47.58l60.319,120.644
	c3.311,6.615,9.131,12.795,16.388,17.4c0.009,0.005,0.02,0.009,0.028,0.016c7.643,4.843,16.136,7.509,23.923,7.509h301.544
	c15.432,0,33.451-10.536,41.022-23.988l58.475-103.955c3.686-6.553,5.663-15.042,5.565-23.903
	C511.997,335.362,511.997,335.362,511.997,335.361L511.997,335.361z M193.694,45.689h116.11c8.076,0,19.167,6.341,23.266,13.298
	l154.895,263.327c0.48,0.816,0.91,1.727,1.288,2.713H346.181L190.27,46.025C191.468,45.804,192.617,45.689,193.694,45.689z
	 M322.244,325.028H174.633l71.142-136.844L322.244,325.028z M23.424,332.294c-3.679-7.355-3.203-20.495,0.995-27.566L170.325,58.992
	c0.502-0.846,1.122-1.697,1.838-2.537l61.41,109.894L84.171,453.729c-0.154-0.264-0.297-0.53-0.429-0.794L23.424,332.294z
	 M488.219,349.021l-58.474,103.953c-3.93,6.98-14.801,13.338-22.81,13.338H105.391c-1.242,0-2.578-0.181-3.953-0.496l62.329-119.893
	h325.816C489.196,347.055,488.74,348.096,488.219,349.021z"/>
<path d="M401.589,389.432h4.678c5.769,0,10.448-4.678,10.448-10.448c0-5.771-4.679-10.448-10.448-10.448h-4.678
	c-5.769,0-10.448,4.678-10.448,10.448C391.141,384.754,395.82,389.432,401.589,389.432z"/>
<path d="M266.305,368.536c-5.769,0-10.448,4.678-10.448,10.448c0,5.77,4.679,10.448,10.448,10.448h101.483
	c5.769,0,10.448-4.678,10.448-10.448c0-5.771-4.679-10.448-10.448-10.448H266.305z"/>
</svg>