<svg width="1080" height="1080" viewBox="0 0 1080 1080" fill="none" xmlns="http://www.w3.org/2000/svg"><path d="M361.97 586.08C337.12 750.98 138.34 798.41 138.34 877.47C138.34 919.26 177.87 917 177.87 963.31H85.26V809.68C85.26 726.1 149.64 642.52 149.64 539.75L305.49 530.75L361.97 586.08Z" fill="#1F1F1F" stroke="#1F1F1F" stroke-width="4.5" stroke-linecap="round" stroke-linejoin="round"/><path d="M71.25 963.31H906.45" stroke="#1F1F1F" stroke-width="4.5" stroke-linecap="round" stroke-linejoin="round"/><path d="M657.45 232.29C648.59 232.29 634.6 243.01 620.45 258C635.07 262.73 649.86 267.38 664.85 271.69C668.38 254.68 670.5 232.29 657.45 232.29Z" fill="white" stroke="#1F1F1F" stroke-width="4.5" stroke-linecap="round" stroke-linejoin="round"/><path d="M820.36 426.34C827.96 410.06 828.36 394.04 804.06 385.34C804.06 385.34 794.13 413.05 820.36 426.34Z" fill="#1F1F1F" stroke="#1F1F1F" stroke-width="4.5" stroke-linecap="round" stroke-linejoin="round"/><path d="M800.28 293.57C913.79 293.57 947.1 116.25 886.12 116.25C825.14 116.25 826.82 216.25 772.61 216.25C692.99 216.25 564.27 150.18 442.29 150.18C279.65 150.18 113.6 280.06 113.6 516.11C113.6 693.94 230.45 963.31 230.45 963.31H335.45C335.45 921.8 301.57 928.58 284.62 887.92L233.88 752.39C276.23 713.39 313.5 652.72 294.02 567.73C329.6 622.79 396.52 627.87 451.57 712.58L627.76 963.31H711.62C711.62 913.31 665.88 916.72 636.23 866.74L541.36 668.53C541.36 668.53 648.9 484.44 738.69 484.44C765.79 484.44 787.01 476.25 803.95 452.53C809.66 444.53 816.12 435.4 820.36 426.34C794.13 413.05 804.06 385.34 804.06 385.34C801.524 384.444 798.944 383.676 796.33 383.04C748.04 371.18 720.94 290.71 659.95 290.71C659.95 290.71 662.67 282.19 664.85 271.71C707.87 284.06 752.62 293.57 800.28 293.57ZM574.45 328.01C564.76 357.56 544.45 453.01 502.97 453.01C440.28 453.01 398.26 319.54 297.46 319.54C267.81 319.54 229.7 335.64 229.7 335.64C229.7 335.64 317.45 215.68 434.35 215.68C496.21 215.68 556.84 237.5 620.45 258.04C600.82 278.85 580.97 307.97 574.45 328.01Z" fill="#FF8B69" stroke="#1F1F1F" stroke-width="4.5" stroke-linecap="round" stroke-linejoin="round"/><path d="M839.81 408.2C839.81 408.2 935.81 358.91 1009.22 453.01" stroke="#1F1F1F" stroke-width="4.5" stroke-linecap="round" stroke-linejoin="round"/><path d="M834.73 390.13L969.7 281.14" stroke="#1F1F1F" stroke-width="4.5" stroke-linecap="round" stroke-linejoin="round"/><path d="M569.03 484.44C560.57 484.44 552.456 487.801 546.473 493.783C540.491 499.766 537.13 507.88 537.13 516.34V931.4C537.13 939.861 540.49 947.976 546.473 953.96C552.455 959.944 560.569 963.307 569.03 963.31H859.86C868.321 963.307 876.435 959.944 882.417 953.96C888.399 947.976 891.76 939.861 891.76 931.4V582.68L793.5 484.43L569.03 484.44Z" fill="#C2E7FF" stroke="#1F1F1F" stroke-width="4.5" stroke-linecap="round" stroke-linejoin="round"/><path d="M825.45 582.68H891.8L793.54 484.43V550.78C793.543 559.241 796.906 567.355 802.89 573.337C808.874 579.319 816.989 582.68 825.45 582.68Z" fill="white" stroke="#1F1F1F" stroke-width="4.5" stroke-linecap="round" stroke-linejoin="round"/><path d="M702.97 381.28C706.814 381.28 709.93 378.164 709.93 374.32C709.93 370.476 706.814 367.36 702.97 367.36C699.126 367.36 696.01 370.476 696.01 374.32C696.01 378.164 699.126 381.28 702.97 381.28Z" fill="#1F1F1F" stroke="#1F1F1F" stroke-width="4.5" stroke-linecap="round" stroke-linejoin="round"/><path d="M451.57 712.58L627.76 963.31H711.62C711.62 913.31 665.88 916.72 636.23 866.74L518.45 617.68" fill="#FF8B69"/><path d="M451.57 712.58L627.76 963.31H711.62C711.62 913.31 665.88 916.72 636.23 866.74L518.45 617.68" stroke="#1F1F1F" stroke-width="4.5" stroke-linecap="round" stroke-linejoin="round"/><path d="M802.22 422.32C802.22 422.32 738.73 459.02 738.73 559.54" stroke="#1F1F1F" stroke-width="4.5" stroke-linecap="round" stroke-linejoin="round"/><path d="M793.5 415.54C793.5 415.54 690.73 437.54 659.95 568.54" stroke="#1F1F1F" stroke-width="4.5" stroke-linecap="round" stroke-linejoin="round"/><path d="M796.33 383.07C748.04 371.21 720.94 290.74 659.95 290.74C659.95 290.74 662.67 282.22 664.85 271.74" fill="white"/><path d="M796.33 383.07C748.04 371.21 720.94 290.74 659.95 290.74C659.95 290.74 662.67 282.22 664.85 271.74" stroke="#1F1F1F" stroke-width="4.5" stroke-linecap="round" stroke-linejoin="round"/><path d="M574.45 328.01C581.02 308.01 600.87 278.85 620.45 258.01C634.56 243.01 648.55 232.3 657.45 232.3C670.54 232.3 668.45 254.64 664.89 271.7L659.99 290.7C659.99 290.7 681.48 288.19 705.99 307.49" fill="#FF8B69"/><path d="M574.45 328.01C581.02 308.01 600.87 278.85 620.45 258.01C634.56 243.01 648.55 232.3 657.45 232.3C670.54 232.3 668.45 254.64 664.89 271.7L659.99 290.7C659.99 290.7 681.48 288.19 705.99 307.49" stroke="#1F1F1F" stroke-width="4.5" stroke-linecap="round" stroke-linejoin="round"/><path d="M704.51 243.87C696.51 243.87 679.14 257.87 665.07 270.58C665 270.95 664.92 271.32 664.85 271.69L659.95 290.69C659.95 290.69 677.69 288.63 699.31 302.69C711.02 273.53 716.94 243.87 704.51 243.87Z" fill="#1F1F1F" stroke="#1F1F1F" stroke-width="4.5" stroke-linecap="round" stroke-linejoin="round"/></svg>