<svg width="1080" height="1080" viewBox="0 0 1080 1080" fill="none" xmlns="http://www.w3.org/2000/svg"><path d="M227.82 299.09l-121-.5a21.138 21.138 0 0 0-21.14 21.14v198.15a21.142 21.142 0 0 0 21.09 21.14h146.26a21.15 21.15 0 0 0 21.15-21.14l-.5-171.4-45.9-47.39h.04z" fill="#C2E7FF" stroke="#C2E7FF" stroke-width="4.5" stroke-linecap="round" stroke-linejoin="round"/><path d="M248.47 346.98l25.25-.5-45.9-47.39-.5 26.75a21.137 21.137 0 0 0 21.15 21.14z" fill="#fff" stroke="#1F1F1F" stroke-width="4.5" stroke-linecap="round" stroke-linejoin="round"/><path d="M495.52 355.46c0-.28.11-.57.17-.85a11.994 11.994 0 0 0-9.48.18c-11.3 4.66-9.13 23.83-2.66 35.92 4.67 8.71 9.92 14.07 14.18 17.31-3.89-17.19-5.17-36.29-2.21-52.56zM668.45 374.74c-3-8.48-10.27-8-15.17-6.6a68.454 68.454 0 0 1-.8 11.26c-2 12.46-7.82 26.22-16.75 39.52a66.447 66.447 0 0 0 13.43-6.93c11.97-7.98 24.11-23.47 19.29-37.25z" fill="#C99069" stroke="#1F1F1F" stroke-width="4.5" stroke-linecap="round" stroke-linejoin="round"/><path d="M495.52 355.46c-5.71 31.43 4.34 73.41 18.63 91.78 18.62 23.94 61.24 26.68 85.13 9.31 29.26-21.28 49.21-51.88 53.2-77.15 3.99-25.27-5.32-74.49-63.84-86.46-60.87-12.45-87.8 33.25-93.12 62.52z" fill="#C99069" stroke="#1F1F1F" stroke-width="4.5" stroke-linecap="round" stroke-linejoin="round"/><path d="M790.82 265c-51.88-49.21-141-49.21-179.57-26.6-24.68 14.47-37.92 37.64-44.26 52.46-45.72 1-66.82 39.06-71.47 64.6a120.836 120.836 0 0 0-1 31.85 78.496 78.496 0 0 0 30.25-1.26c29.26-6.65 55.86-29.26 55.86-29.26s26.1 49.16 60 54.24c6.18-10.77 10.27-21.62 11.85-31.63 3.79-24-4.39-69.43-55.12-84.3 21.89-26.46 55.64-27.76 82.43-17.26 21.4 8.38 39.06 24.83 41.86 48.35 6.65 55.87-35.91 101.09-61.19 149s-8 103.75 69.17 95.77c77.17-7.98 117.06-70.5 126.37-115.72 9.31-45.22-13.3-141.02-65.18-190.24z" fill="#933222" stroke="#1F1F1F" stroke-width="4.5" stroke-linecap="round" stroke-linejoin="round"/><path d="M862.65 546.68c-34.59-49.22-94.44-58.53-135.68-49.22-41.24 9.31-94.44 22.61-167.6 20-73.16-2.61-113.06-20-170.26-35.91-48.62-13.57-95.77-1.33-137 45.22-36.06 40.72-159.2 198.6-158.35 197.77 21.85-22.6 71.66 2.5 135 46.43 61 42.32 98.39 77.94 92.32 101.69l20.14-43.98 16 86.46h439l-5.32-81.69c-3.1-28.82 18.61-52.85 58.53-73.6 47.11-24.5 125.25-39.08 154.9-8.51-21.66-31.36-111.35-161.51-141.68-204.66z" fill="#fff" stroke="#1F1F1F" stroke-width="4.5" stroke-linecap="round" stroke-linejoin="round"/><path d="M91.88 726.61c20.78-26.2 71.66-.93 136.84 44.3s103.42 82.77 90.45 106.41c-14.39 26.2-61.19 21.29-125-22.61S65.23 760.22 91.88 726.61zM790.819 833.43c-3.1-28.82 18.61-52.85 58.53-73.6 49.88-25.94 134.541-40.77 159.621-2.66 34.14 51.87-45.891 87.12-109.741 101.09-47.46 10.42-105.91-1.58-108.41-24.83z" fill="#1F1F1F" stroke="#1F1F1F" stroke-width="4.5" stroke-linecap="round" stroke-linejoin="round"/><path d="M49.25 915.12h980.66" stroke="#1F1F1F" stroke-width="4.5" stroke-linecap="round" stroke-linejoin="round"/><path d="M960.25 734.39s16.79 28.1 33.75 64 4 116.72-51.87 116.72H675.77c-35.91 0-71.82-25.14-71.82-67.33V678.35c0-12 16-15.29 19.94 3.33 2.95 13.75 23.62 101.1 33.57 143.1a24.843 24.843 0 0 0 28.17 18.79l105-20.4s.84-15.62 15-31.59c20.32-22.95 60.69-43.06 99.59-52 33.55-7.78 55.03-5.19 55.03-5.19z" fill="#C99069" stroke="#1F1F1F" stroke-width="4.5" stroke-linecap="round" stroke-linejoin="round"/><path d="M903.88 798.4l-113.23 24.78-53.04-96.6" stroke="#1F1F1F" stroke-width="4.5" stroke-linecap="round" stroke-linejoin="round"/><path d="M606.83 516.93c-9.71-15-15.43-35.49-17.51-54.82-20.74 9.17-48.89 7.14-66.88-6.53-9.67 21.53-23.89 40.06-39.19 52.44-19.11-4.17-36.65-9.34-54.79-14.83l-3.52-1.06s53.07 124 143.52 110.74c86.36-12.7 115.73-89.67 118.21-96.6a555.77 555.77 0 0 1-79.84 10.66z" fill="#C99069" stroke="#1F1F1F" stroke-width="4.5" stroke-linecap="round" stroke-linejoin="round"/><path d="M140.77 720.81s-21.72 27.71-37.68 81.58 0 112.73 41.9 112.73h81.8l103.75-174.58s49.88-25.94 79.81-57.86c29.93-31.92 59.86-86.46 59.86-86.46h55.87c8.64 0 13.3-17.3.66-23.06-7.26-3.31-19.51-.89-19.51-.89s-2.21-6.2-12.63-6.43c-12.79-.27-17.52 2.22-17.52 2.22s-3.77-5.1-20.61-4.88c-20.13.27-91.34 14.41-118 37.69-26.66 23.28-126.14 159-126.14 159s-11-7.81-33.48-20.84c-22.48-13.03-38.08-18.22-38.08-18.22z" fill="#C99069" stroke="#1F1F1F" stroke-width="4.5" stroke-linecap="round" stroke-linejoin="round"/><path d="M477.12 568.06a16.26 16.26 0 0 1 2.44 19.73c-4.18 6.54-9.31 8.43-9.31 8.43M507.27 572.27c1.78 3.11 2.89 10.2.23 15.52-3.48 6.94-9.32 8.43-9.32 8.43M212.42 759.83l-45.45 59.86M341.22 828.67l11.97-25.61" stroke="#1F1F1F" stroke-width="4.5" stroke-linecap="round" stroke-linejoin="round"/><path d="M474.79 436.16c11.57 0 20.95-9.38 20.95-20.95 0-11.57-9.38-20.95-20.95-20.95-11.571 0-20.95 9.38-20.95 20.95 0 11.57 9.379 20.95 20.95 20.95z" fill="#fff" stroke="#1F1F1F" stroke-width="4.5" stroke-linecap="round" stroke-linejoin="round"/><path d="M560.04 449.9c-12.64-2.66-11.31-12-5.32-17.29 5.99-5.29 10-15.3 10-20.62" stroke="#1F1F1F" stroke-width="4.5" stroke-linecap="round" stroke-linejoin="round"/><path d="M595.53 426.29c1.789 0 3.24-1.674 3.24-3.74 0-2.066-1.451-3.74-3.24-3.74-1.789 0-3.24 1.674-3.24 3.74 0 2.066 1.451 3.74 3.24 3.74zM531.02 416.98c1.79 0 3.24-1.674 3.24-3.74 0-2.066-1.45-3.74-3.24-3.74-1.789 0-3.24 1.674-3.24 3.74 0 2.066 1.451 3.74 3.24 3.74z" fill="#1F1F1F"/><path d="M276.96 213.02c49.88 0 102.75 25.94 123.7 77.82 0 0 17-131.69 161.62-171.59M898.23 348.48v41.27M957.48 373.02l-29.18 29.19M982.03 432.28h-41.28" stroke="#1F1F1F" stroke-width="4.5" stroke-linecap="round" stroke-linejoin="round"/><path d="M852.83 437.76l45.9 47.39.5 171.4a21.153 21.153 0 0 1-21.14 21.13H731.82a21.14 21.14 0 0 1-21.14-21.14V458.4a21.14 21.14 0 0 1 21.14-21.14l121 .5h.01z" fill="#C4EED0" stroke="#C4EED0" stroke-width="4.5" stroke-linecap="round" stroke-linejoin="round"/><path d="M547.92 597.48l-146.62-.6a25.617 25.617 0 0 0-25.62 25.62v240.07a25.619 25.619 0 0 0 25.62 25.62h177.22a25.619 25.619 0 0 0 25.62-25.62l-.61-207.66-55.61-57.43z" fill="#fff" stroke="#1F1F1F" stroke-width="4.5" stroke-linecap="round" stroke-linejoin="round"/><path d="M572.93 655.51l30.6-.6-55.61-57.43-.6 32.42a25.623 25.623 0 0 0 25.61 25.61z" fill="#FFDF99" stroke="#1F1F1F" stroke-width="4.5" stroke-linecap="round" stroke-linejoin="round"/><path d="M868.3 531.04H746.59v65.84H868.3v-65.84z" fill="#1EA446" stroke="#1F1F1F" stroke-width="4.5" stroke-linecap="round" stroke-linejoin="round"/><path d="M868.3 564.96H746.59M807.44 532.04v63.85M121.08 376.41h90.78M121.08 413.32h63.85M121.08 450.23H155M330.58 700.68s25.84-10.59 36.58-30.59c8-14.85 8.65-37 8.65-37" stroke="#1F1F1F" stroke-width="4.5" stroke-linecap="round" stroke-linejoin="round"/><path d="M491.86 816.7c39.903 0 72.25-32.347 72.25-72.25s-32.347-72.25-72.25-72.25c-39.902 0-72.25 32.347-72.25 72.25s32.348 72.25 72.25 72.25z" fill="#FFDF99" stroke="#FFDF99" stroke-width="4.5" stroke-linecap="round" stroke-linejoin="round"/><path d="M604.26 720.92s1-12.21 10.65-14.63c9.31-2.33 15.29 5 16.62 9.64M604.26 697.31s.78-9 8.32-10.31c7.54-1.31 13.3 5 15.3 12.3" stroke="#1F1F1F" stroke-width="4.5" stroke-linecap="round" stroke-linejoin="round"/><path d="M873.48 485.68l25.25-.5-45.9-47.39-.5 26.75a21.137 21.137 0 0 0 21.15 21.14z" fill="#fff" stroke="#1F1F1F" stroke-width="4.5" stroke-linecap="round" stroke-linejoin="round"/><path d="M467.29 718.86l24.57 28.42 39.32-39.32M898.77 547.22l.5 109.33a21.141 21.141 0 0 1-6.212 14.953 21.16 21.16 0 0 1-14.968 6.177h-87.56" stroke="#1F1F1F" stroke-width="4.5" stroke-linecap="round" stroke-linejoin="round"/></svg>