<svg xmlns="http://www.w3.org/2000/svg" xmlns:xlink="http://www.w3.org/1999/xlink" viewBox="0 0 570 571.34"><path fill="#1A73E8" d="M432.04 277.383l19.35.056-.056 19.35-19.35-.056z"/><path fill="#D2E3FC" d="M450.34 270.335l10.97.032-.096 33.55-10.97-.032zM220.472 17.177l121.5.347-.602 210.6-121.5-.347zm120.901 538.908l-121.5-.347.602-210.6 121.5.347z"/><path fill="#E8F0FE" d="M351.727 477.703l-140.91-.403.358-125.4 140.91.403zm0-255.283l-140.91-.402.358-125.4 140.91.402z"/><circle fill="#D2E3FC" cx="280.92" cy="286.63" r="164.48"/><defs><circle id="a" cx="280.92" cy="286.63" r="121.01"/></defs><clipPath id="b"><use xlink:href="#a" overflow="visible"/></clipPath><circle clip-path="url(#b)" fill="#FFF" cx="280.92" cy="286.63" r="121.01"/><path fill="none" stroke="#D2E3FC" stroke-width="8" stroke-linecap="round" stroke-miterlimit="10" d="M497.31 286.63c0 119.77-97.09 216.86-216.86 216.86S63.6 406.4 63.6 286.63c0-45.7 14.13-88.09 38.27-123.05"/><path fill="#D2E3FC" d="M153.31 157.6l-43.98-.13a4.317 4.317 0 0 1-4.3-4.32l.13-45.28c.01-2.38 1.94-4.3 4.32-4.3l43.98.13c2.38.01 4.3 1.94 4.3 4.32l-.13 45.28c0 2.38-1.94 4.3-4.32 4.3z"/><path fill="#FFF" d="M112.99 112.038l36.93.105-.078 26.95-36.93-.105z"/><circle fill="#FFF" cx="497.31" cy="286.63" r="10.19"/><circle fill="none" stroke="#1A73E8" stroke-width="8" stroke-linecap="round" stroke-miterlimit="10" cx="497.31" cy="286.63" r="10.19"/><g><path fill="none" stroke="#D2E3FC" stroke-width="8" stroke-miterlimit="10" d="M280.45 286.63l89.35 68.78"/><path fill="none" stroke="#D2E3FC" stroke-width="11" stroke-miterlimit="10" d="M280.11 286.95l.34-92.86"/><circle fill="#1A73E8" cx="280.45" cy="286.63" r="13.84"/></g></svg>
