<svg width="890" height="869" viewBox="0 0 890 869" fill="none" xmlns="http://www.w3.org/2000/svg"><g clip-path="url(#a)" stroke-width="4.5"><path d="M672.96 519.24c-8.81.53-10.64 5.36-9.47 10.62.92 4.16 9.27 7.8 15.7 8.78 7.62 1.15 14.09 3.92 22.86 8.54 8.77 4.62 11 9.62 18.71 11.09 8.54 1.61 15.7-11.78 6.24-20.33-8.21-7.4-19.86-11.31-29.8-13.62-9.94-2.31-16.62-5.58-24.24-5.08z" fill="#8C4819" stroke="#1F1F1F" stroke-linecap="round" stroke-linejoin="round"/><path d="M701.59 504.24c-15-4.14-32.51-4.78-42.49-2.08-8.54 2.31-9.24 11.32-5.08 14.78 3.41 2.84 13.86 3 18.94 2.31 8.35-1.14 30.71 6.93 39 13.16s18.94 2.31 19.17-6.93c.23-9.24-9.45-15.75-29.54-21.24z" fill="#8C4819" stroke="#1F1F1F" stroke-linecap="round" stroke-linejoin="round"/><path d="M702.62 484.66c-15-4.14-32.5-4.77-42.49-2.07-8.54 2.31-9.23 11.31-5.08 14.78 3.41 2.84 13.86 3 18.94 2.3 8.35-1.13 30.71 6.93 39 13.17s18.93 2.31 19.16-6.93c.23-9.24-9.43-15.67-29.53-21.25z" fill="#8C4819" stroke="#1F1F1F" stroke-linecap="round" stroke-linejoin="round"/><path d="M681.27 378.65v172.77" stroke="#1F1F1F" stroke-linecap="round" stroke-linejoin="round"/><path d="M672.76 24.86l46.9 143.59 151.06.24c15.82 0 22.39 20.25 9.61 29.56l-122.07 89 46.45 143.74c4.87 15.05-12.34 27.55-25.14 18.27l-122.35-88.6-122.35 88.58c-12.81 9.28-30-3.22-25.15-18.27l46.46-143.73-122.11-89c-12.77-9.31-6.2-29.54 9.61-29.56l151.06-.24 46.91-143.59c4.94-15.02 26.2-15.02 31.11.01z" fill="#FFDF99" stroke="#FFDF99" stroke-miterlimit="10"/><path d="M6.49 610.24c24.64-46.55 84.52-135.79 124.7-164.89 40.18-29.1 81.75-20.78 119.16-4.16s62.35 26.33 62.35 26.33 73.44-13.86 120.55-15.24c47.11-1.38 70.66 16.63 101.15 77.59 30.49 60.96 49.88 95.61 61 121.93 11.12 26.32-17.66 65.13-52 89-49.66 34.61-86.93 32.91-86.93 32.91l7.26 92.83H74.38l44.34-141.3s-31.87-5.54-73.44-33.25C9.67 668.24-5.93 633.74 6.49 610.24z" fill="#C2E7FF" stroke="#C2E7FF" stroke-miterlimit="10"/><path d="M204.97 241.62c18.71-19.75 43.65-26 65.13-13.51 19.91 11.56 20.43 35.33 14.2 52-3.25 8.65-10 27.36-33.26 38.45-22 10.48-49.53 4.5-59.58-20.79-7.45-18.79-2.85-38.88 13.51-56.15z" fill="#3C4043" stroke="#191C1E" stroke-linecap="round" stroke-linejoin="round"/><path d="M204.97 241.62c-16.81 16.81-44 20.09-61.66 10-19.85-11.28-25.72-33.32-19-54.38 6.58-20.79 21.83-33.6 41.57-37.07 19.74-3.47 37.41 0 49.53 17 11.74 16.51 9.66 44.36-10.44 64.45z" fill="#3C4043" stroke="#191C1E" stroke-linecap="round" stroke-linejoin="round"/><path d="M150.24 165.41c-24.09 10.75-53.69 5.89-66.16-12.47-11.19-16.47-10-41.67 1.73-58.2 17-23.9 43.65-32.9 70.32-23.9 25.53 8.62 35 36.38 26.67 61.32-5.49 16.48-13.16 24.59-32.56 33.25z" fill="#3C4043" stroke="#191C1E" stroke-linecap="round" stroke-linejoin="round"/><path d="M120.8 69.11c-9.71 1.3-30.49-17.67-39.84-32.21-9.35-14.54-12-22.12-7.62-24.6 7.28-4.15 24.92-9.72 50.23-10 27-.35 43.65 8.31 45.72 11.43 2.07 3.12-2.42 15.59-13.51 28.06-10.31 11.56-24.59 25.94-34.98 27.32z" fill="#3C4043" stroke="#191C1E" stroke-linecap="round" stroke-linejoin="round"/><path d="M597.65 661.44c-1.25-7.94-6.67-9.67-16.83-10.15-24.71-1.15-51 7.39-90.07 32.56-33.85 21.83-61.66 53.12-61.66 67.67 0 14.55 10.42 21.18 27.38 22.17 0 0 37.27 1.7 86.93-32.91 30.3-21.12 56.24-53.85 54.25-79.34z" fill="#1F1F1F" stroke="#1F1F1F" stroke-linecap="round" stroke-linejoin="round"/><path d="M723.99 483.4c-20.13-13.21-41.07-24.36-50.8-25.17-11.09-.92-15.24 8.55-7.62 14.78 6.15 5 11.54 8.78 11.54 8.78-6 3.23-6.51 13 0 18.75 14.24 12.64 37 34.85 37 34.85-1.38 34.64 22.15 66.48 22.15 66.48s-1.38 20.79-15.24 51.27c-12.88 28.35-30.94 59.58-64.66 62.81-40.52 3.89-59.12-26.79-80.83-55.88-1.77-2.38-3.7-5.32-5.72-8.63-21.68 1.57-45.73 10.94-79 32.41a233.44 233.44 0 0 0-28 21.31l1.47 2.48c14.79 24.8 44.06 56.31 77.4 81.1 50.54 37.6 106.85 31.92 139.22 18.66 48.49-19.86 83.4-62.71 98.38-120.54 19.6-76.05-.82-167.71-55.29-203.46z" fill="#8C4819" stroke="#1F1F1F" stroke-linecap="round" stroke-linejoin="round"/><path d="M433.25 579.71l-4.15 171.81" stroke="#1F1F1F" stroke-linecap="round" stroke-linejoin="round"/><path d="M140.89 655.24c-14.38-9.48-43-24.25-67.2-33.95-21.74-8.69-65.82-18.71-71 .68-3.27 22.3 12.57 50 42.61 70 36.51 24.33 66.91 31.85 73.44 33.25l22.15-69.98z" fill="#1F1F1F" stroke="#1F1F1F" stroke-linecap="round" stroke-linejoin="round"/><path d="M169.99 563.77l-29.1 91.45" stroke="#1F1F1F" stroke-linecap="round" stroke-linejoin="round"/><path d="M427.01 345.88c-3.81-4.15-7.62-12.12-5.54-22.86s6.58-30.14-2.77-48.49-29.79-33.95-50.23-38.45c-20.44-4.5-40.87-2.43-57.15 9.35-17.24 12.46-28.31 27.88-30.83 50.92-2.43 22.17.34 34 6.58 53.69 6.24 19.69 9 31.18 2.42 47.46s-23.55 32.9-39.14 43.64a211.106 211.106 0 0 0-23.72-9c2.2 21.05 22.65 56.521 69.45 61.301 35.83 3.66 74.74-20.47 96.11-38-10.18 1.15-27.3 3.579-27.3 3.579s-8.72-9.239-9.93-32.099c-1-19.74 4.51-32.561 4.51-32.561s5.54 1.73 17.66 1.73c12.12 0 22.87-2.77 28.41-13.51 5.54-10.74 10-25.63 10-25.63a36.08 36.08 0 0 0 7.62-1.39c5.59-1.71 7.66-5.52 3.85-9.68zM134.53 675.3l6.36-20.08c-14.38-9.48-43-24.25-67.2-33.95a164.361 164.361 0 0 0-22.35-7C34.07 648.82 5.68 713.8 14.8 752.88c9.7 41.57 40 63.46 72.4 72.4l47.33-149.98z" fill="#8C4819" stroke="#1F1F1F" stroke-linecap="round" stroke-linejoin="round"/><path d="M424.36 297.62a53.997 53.997 0 0 0-5.66-23.09c-9.35-18.36-29.79-33.95-50.23-38.45-20.44-4.5-40.87-2.43-57.15 9.35-17.24 12.46-28.31 27.88-30.83 50.92-2.43 22.17.34 34 6.58 53.69 3.3 10.45 5.61 18.57 6.1 26.31 12.88 4.37 33 2.79 43.78-7.26 8-7.52 11.47-26.85 8.31-41.91-3.06-14.64 3.12-28.75 13.51-31.87 13.06-3.92 19.06 8.201 21.36 15.131 2.3 6.93 8.78 9.69 20.33 6.46 9.61-2.66 18.49-11.381 23.9-19.281z" fill="#3C4043" stroke="#191C1E" stroke-linecap="round" stroke-linejoin="round"/><path d="M410.947 329.045c.277-1.566.06-2.914-.484-3.01-.544-.096-1.209 1.096-1.485 2.663-.277 1.566-.06 2.914.484 3.01.544.096 1.209-1.096 1.485-2.663z" fill="#1F1F1F" stroke="#1F1F1F" stroke-linecap="round" stroke-linejoin="round"/><path d="M681.27 585.36c9.372 0 16.97-7.598 16.97-16.97s-7.598-16.97-16.97-16.97-16.97 7.598-16.97 16.97 7.598 16.97 16.97 16.97z" fill="#fff" stroke="#1F1F1F" stroke-linecap="round" stroke-linejoin="round"/><path d="M677.07 481.79c6.24-3.24 10.4-.46 17.32 4.39s45.73 33.25 45.73 33.25M681.27 448.81v31.59M672.76 24.86l46.91 143.6 151.06.23" stroke="#1F1F1F" stroke-linecap="round" stroke-linejoin="round"/></g><defs><clipPath id="a"><path fill="#fff" d="M0 0h889.33v868.77H0z"/></clipPath></defs></svg>