<svg width="1080" height="1080" viewBox="0 0 1080 1080" fill="none" xmlns="http://www.w3.org/2000/svg"><path d="M898.8 402.8c-22.12-13.79-110-83.56-149-105.35-39-21.79-84.59-40-84.59-40 7.78 0 13.49-6.22 16.08-17.64 2.59-11.42 10.9-54.49 10.9-54.49 48.88 21.3 109.56 56.59 154.71 84.1 45.15 27.51 106.39 73.7 133.9 93.42 24.95 17.89-46.19 62.27-82 39.96z" fill="#fff" stroke="#1F1F1F" stroke-width="4.5" stroke-linecap="round" stroke-linejoin="round"/><path d="M1005.97 220.9c-14.8-2.34-28 1.16-35.42 9-7.42 7.84-16.94 28.13-22.19 34.21a53.302 53.302 0 0 1-15.67 12.55c-3.89 2-3.5 5.94 0 7.89 3.5 1.95 5.94 3.3 5.94 3.3s-4.28 13.24-6.23 21.8c-1.95 8.56 2.34 13.62 9.73 14.79a108.16 108.16 0 0 0 14.79 1.17s-3.57 25.69-5.24 33c19.12-7.64 36.9-8.29 50.39-2.51 2.1.891 4.11 1.987 6 3.27-6.1-13.38-9.88-23.77-8-34.54 1.88-10.77 13.62-23 22.18-29.19 8.56-6.19 18.56-17.8 18.3-34.64-.33-25.31-19.79-37.77-34.58-40.1z" fill="#933222" stroke="#1F1F1F" stroke-width="4.5" stroke-linecap="round" stroke-linejoin="round"/><path fill-rule="evenodd" clip-rule="evenodd" d="M924.971 767.132a2.25 2.25 0 0 0-2.992.806l-20.388 33.395-28.722 47.045v.001c-5.399 8.858-8.397 16.022-9.318 22.256-.935 6.333.291 11.577 3.059 16.481.079.139.172.27.278.389a26.698 26.698 0 0 0 6.254 5.175c1.503 1.11 3.518 1.542 5.273 1.744 1.884.217 3.917.211 5.627.186 10.134-.143 25.034-7.557 35.86-24.383 5.285-8.213 17.017-27.68 27.404-45.054a9400.872 9400.872 0 0 0 17.898-30.067l1.171-1.976.409-.691.002-.003a2.248 2.248 0 0 0-.865-3.124l-40.95-22.18zM884.042 894.61h.001l-.033-2.25.032 2.25zm-10.9-1.93a5.258 5.258 0 0 1-.126-.096l1.384-1.774-1.145 1.937-.113-.067zm48.837-124.742c.001-.001 0 0 1.921 1.172l-1.921-1.172z" fill="#1F1F1F"/><path d="M696.52 638.54c-18.68 4.67-55.66 55.66-42 88.36 13.66 32.7 48.26 56.44 72.4 72.4 24.14 15.96 142.65 90.1 142.65 90.1-6.62-9.73-4.09-20 5.25-39.89s48.66-81.35 48.66-81.35L696.52 638.54z" fill="#C2E7FF"/><path d="M564.57 828.49c3.5-37.38 11.66-171.44 21.8-219.14 10.51-49.43 45-69.17 110.54-65.39 60.72 3.5 130.14 5.37 194.23 19.85 61.34 13.86 102.37 32.7 102.37 32.7s-19.07 43.6-30.75 62.27c-10.52 16.84-20.63 24.53-52.55 22.58-60.88-3.71-199.8-13.88-199.8-13.88l8.3 175s-63.83-16.37-101.2-21.37c-25.56-3.48-51.77-3.91-52.94 7.38z" fill="#C2E7FF"/><path d="M1002.07 356.11c-16.14-6.92-38.4-4.67-61.76 7.78-12.13 6.48-32.26 19.68-50.25 34.3 3.72-19.76 6.66-35.33 6.66-35.33l-70.06-.52s-57.09 79.4-61.76 133.37c-2.27 26.19 25.95 31.14 40.48 23.88 5.44-2.72 16.4-8.2 28-14.32-4.42 18.09-8 37.1-9.37 47.56 22.79 3.73 45.45 6.11 67.09 11 61.34 13.86 102.37 32.7 102.37 32.7s-3.23 7.38-7.84 17.36c.341-.23.625-.534.83-.89 8.31-15 17.65-47.74 19.21-60.2 1.56-12.46 13-119.36 15.57-148.43 2.57-29.07-4.64-42.05-19.17-48.26z" fill="#fff" stroke="#1F1F1F" stroke-width="4.5" stroke-linecap="round" stroke-linejoin="round"/><path d="M840.15 335.33c4.1 7.46 6 17.59 5.67 27.13l45.66.34c2-10.68 2.69-22.17-8.25-30.58-13.5-10.38-69.55-46.71-76.29-50.86-6.74-4.15-14.53-1.56-6.75 7.78 7.78 9.34 34.25 35.81 39.96 46.19z" fill="#933222" stroke="#1F1F1F" stroke-width="4.5" stroke-linecap="round" stroke-linejoin="round"/><path fill-rule="evenodd" clip-rule="evenodd" d="M617.81 818.88c-12.838-1.738-25.699-2.591-35.569-1.542-4.919.522-9.288 1.535-12.57 3.282-3.335 1.776-5.77 4.453-6.168 8.246-.773 6.786 2.125 12.987 6.991 18.225 4.859 5.23 11.817 9.668 19.647 13.082h.002c27.134 11.799 48.787 16.9 88.255 20.806 13.589 1.344 23.798 1.542 30.633 1.402 3.418-.071 5.991-.226 7.721-.365a65.158 65.158 0 0 0 2.47-.243l.071-.009.063-.008.038-.005.012-.002.005-.001-.311-2.228.312 2.228a2.25 2.25 0 0 0 1.938-2.186l-2.25-.042 2.25.041v-.004l.004-.239.005-.297.006-.401a843.329 843.329 0 0 0 .082-11.6c0-7.262-.097-16.555-.49-24.61l-.032.002c-.405-1.189-1.425-1.999-1.498-2.025l-.051-.016-.029-.009-.026-.008-.023-.006-.028-.008-.028-.007a12.912 12.912 0 0 1-.102-.027l-.047-.012a522.62 522.62 0 0 0-2.647-.676c-1.823-.461-4.467-1.123-7.755-1.933a1666.29 1666.29 0 0 0-26.065-6.196c-20.634-4.726-46.02-10.094-64.816-12.609z" fill="#1F1F1F"/><path d="M643.13 825.41c-7.37 48.73-80.19 68.89-106.58 79s-31.14 14.79-28 25.92h208.09c3.28-23.12 2.48-64.84 2.07-87.81 0-.02-40.28-10.33-75.58-17.11z" fill="#fff" stroke="#1F1F1F" stroke-width="4.5" stroke-linecap="round" stroke-linejoin="round"/><path d="M478.82 930.31h547.66" stroke="#1F1F1F" stroke-width="4.5" stroke-linecap="round" stroke-linejoin="round"/><path d="M827.18 868.81c-1.56-51.38-1.56-107.43-1.56-179.05h-16.35c0 71.62 0 127.67-1.55 179.05-1.24 40.73-43.6 52.94-91.08 61.5h201.62c-47.49-8.56-89.85-20.77-91.08-61.5z" fill="#fff" stroke="#1F1F1F" stroke-width="4.5" stroke-linecap="round" stroke-linejoin="round"/><path fill-rule="evenodd" clip-rule="evenodd" d="M710.41 665.23a2.25 2.25 0 0 0-2.25 2.25c0 16.482 6.4 27.302 15.524 33.922 9.008 6.538 20.427 8.808 30.316 8.808h122.53c19.947 0 30.459-1.715 46.419-8.489h.001c13.323-5.664 22.816-13.268 35.991-32.991a2.25 2.25 0 0 0-1.871-3.5H710.41z" fill="#1F1F1F"/><path d="M43.72 709.11s9.86 103 18.45 157.8c6.5 41.43 26.84 62.28 49.39 62.28h82.51c22.55 0 42.89-20.85 49.39-62.28 8.61-54.8 18.44-157.8 18.44-157.8H43.72z" fill="#C2E7FF"/><path d="M34.25 928.36s172.52.74 373.69 1.3M957.07 667.48c11.24-16.91 26.85-45.32 41.62-85" stroke="#1F1F1F" stroke-width="4.5" stroke-linecap="round" stroke-linejoin="round"/><path fill-rule="evenodd" clip-rule="evenodd" d="M1048.01 437.936c.72-3.813-1.56-7.03-4.51-9.199-2.99-2.209-7.15-3.741-11.55-4.294-8.75-1.101-19.44 1.64-24.15 12.223-.84 1.886-2.37 5.046-4.36 9.162-8.752 18.039-26.409 54.448-33.649 82.53l-.001.005c-3.01 11.769-4.404 20.805-3.537 28.107.889 7.484 4.137 13.035 10.012 17.789l.002.002c5.559 4.485 11.036 7.098 15.135 8.593a43.99 43.99 0 0 0 4.973 1.502 30 30 0 0 0 1.426.3c.169.031.303.053.398.068l.113.018.034.005.012.001.004.001h.002c.001 0 .002 0 .306-2.229l-.304 2.229a2.252 2.252 0 0 0 2.414-1.443c10.36-27.804 22.16-64.101 31.36-93.421 4.6-14.666 8.55-27.596 11.36-36.86 1.4-4.632 2.51-8.348 3.28-10.906.38-1.28.68-2.269.87-2.939.05-.169.1-.318.14-.446.03-.126.07-.231.09-.316l.08-.256v-.003l-2.16-.639 2.16.638c.02-.073.04-.147.05-.222zM708.59 562.73c-5.432 0-9.386 2.054-11.269 5.722-1.811 3.526-1.358 7.894.468 11.867 3.683 8.015 13.444 15.711 27.151 15.711h173.65c12.623 0 22.241-7.773 26.74-15.52 2.227-3.832 3.406-8.013 2.704-11.477-.363-1.791-1.245-3.431-2.776-4.602-1.516-1.16-3.459-1.701-5.668-1.701h-211z" fill="#1F1F1F"/><path d="M833.92 590.67s3.12 35 11.68 78.62z" fill="#1F1F1F"/><path d="M833.92 590.67s3.12 35 11.68 78.62" stroke="#1F1F1F" stroke-width="4.5" stroke-linecap="round" stroke-linejoin="round"/><path d="M1006.35 813.7c-7.07-4.24-82.45-44.63-82.45-44.63s-25 41.89-38.86 66.3c4.71 7.85 7.34 18 5.71 32.43-2.34 20.78-30.36 34.25-45.54 40.48-15.18 6.23-22.18 12.69-21.41 22h152.58s31.53-72.24 36.59-87.42c5.06-15.18 1.17-24.49-6.62-29.16z" fill="#fff" stroke="#1F1F1F" stroke-width="4.5" stroke-linecap="round" stroke-linejoin="round"/><path d="M976.38 930.31s31.53-72.24 36.59-87.42c4.61-13.81 1.78-22.78-4.63-27.8-3.95-1.93-10.67.36-15.87 8.86-7.34 12-48.33 79.52-64.75 106.36h48.66z" fill="#F9DEDC" stroke="#1F1F1F" stroke-width="4.5" stroke-linecap="round" stroke-linejoin="round"/><path d="M810.05 458.85l80.01-60.68M833.42 505.25c19.19-11.11 82.5-56.26 101.19-73.91" stroke="#1F1F1F" stroke-width="4.5" stroke-linecap="round" stroke-linejoin="round"/><path d="M601.68 160.95c-11.16 0-37.88 7.79-42 10.64-4.12 2.85-5.12 7.72 2.6 8.83a27.69 27.69 0 0 0 10.12-.52s-1.82 7.26 8.56 7c10.13-.25 21.21-3.22 31.92-5.19 8.79-1.61 15.43-2.56 19.55-3.08a2.934 2.934 0 0 0 2.436-1.958 2.934 2.934 0 0 0-.716-3.042 34.01 34.01 0 0 0-7.52-5.45c-9.38-5.15-24.95-7.23-24.95-7.23z" fill="#933222" stroke="#1F1F1F" stroke-width="4.5" stroke-linecap="round" stroke-linejoin="round"/><path d="M572.36 179.9l38.92-8.79c-8.3.74-29.06 6.19-38.92 8.79z" fill="#933222" stroke="#1F1F1F" stroke-width="4.5" stroke-linecap="round" stroke-linejoin="round"/><path d="M681.34 239.84c2.57-11.27 10.68-53.32 10.89-54.44-6.34-3-14.14-6.1-21-8.88-14.4-5.83-19.46-2.59-18.94 15.05.43 14.61 5.95 54.67 8.44 61.44a7.991 7.991 0 0 0 4.56 4.47c7.78-.01 13.46-6.24 16.05-17.64z" fill="#1F1F1F" stroke="#1F1F1F" stroke-width="4.5" stroke-linecap="round" stroke-linejoin="round"/><path d="M665.51 257.58l.63.26" stroke="#1F1F1F" stroke-width="4.5" stroke-linecap="round" stroke-linejoin="round"/><path d="M692.24 185.35c-17.12-8.31-81.48-32.7-105.35-35.81-13.54-1.77-13.75 4.93-3.37 9.6 10.38 4.67 39.7 16.86 48.52 23.09s5.71 12.2-2.07 14.79c-7.78 2.59-27 4.15-34.78 7.27-7.78 3.12-6.48 10.35 7.53 10.12 30.88-.52 82.42 7.17 82.42 7.17l7.1-36.23z" fill="#933222" stroke="#1F1F1F" stroke-width="4.5" stroke-linecap="round" stroke-linejoin="round"/><path fill-rule="evenodd" clip-rule="evenodd" d="M191.99 527.31c-17.419 0-31.54 14.121-31.54 31.54 0 17.419 14.121 31.54 31.54 31.54 17.419 0 31.54-14.121 31.54-31.54 0-17.419-14.121-31.54-31.54-31.54z" fill="#FFBB29"/><path d="M173.94 581.91a29.25 29.25 0 0 1-11.24-23.07M210.78 494.53c11.67-77.07 43.19-162.31 98.07-195 54.88-32.69 93.41-15.18 109.76 12.85 12.13 20.79 4.6 52.13-23.35 57.21-25.69 4.67-36.2-22.18-29.19-49 7.01-26.82 57.21-98.09 150.63-129.61" stroke="#1F1F1F" stroke-width="4.5" stroke-linecap="round" stroke-linejoin="round"/><path d="M1005.97 220.9c-14.8-2.34-28 1.16-35.42 9a66.034 66.034 0 0 0-7.1 9.65c17.47 12.09 57.52 39 67 47.57l.5.44a39.779 39.779 0 0 0 9.62-26.52c-.35-25.35-19.81-37.81-34.6-40.14z" fill="#FFDF99" stroke="#FFDF99" stroke-width="4.5" stroke-miterlimit="10"/><path d="M1040.2 267.33c-10.44-2-22.67-.52-26.8 6.76" stroke="#1F1F1F" stroke-width="4.5" stroke-linecap="round" stroke-linejoin="round"/><path d="M948.36 264.11c3.54-4.36 9.77-15.84 15.09-24.6-15.87-10.82-38.83-20.94-49.34-20.94-10.51 0-14.41 12.06-5.04 27.24 5.81 9.45 19.92 20.25 29.75 27.07a51.497 51.497 0 0 0 9.54-8.77z" fill="#444746" stroke="#1F1F1F" stroke-width="4.5" stroke-linecap="round" stroke-linejoin="round"/><path d="M1030.49 287.11c-9.52-8.54-49.56-35.48-67-47.57-1.73 2.73-3.5 6-5.07 8.53 4.69 2.59 11.63 6.88 13.84 10 2.6 3.64 3.12 9.09 3.12 12.2 0 3.11.17 14.54.51 17.64.52 4.68 2.86 7.27 5.45 3.9 2.59-3.37 5.78-7.86 10.9-9.86 6-2.34 11.94.26 13.5 7.26 1.35 6.09-3.64 12.46-7.79 15.05-4.43 2.77-10.38 5.71-10.38 10.12 0 4.41 6 10.9 12.2 13.24.09-.91.19-1.82.36-2.74 1.94-10.9 13.62-23 22.18-29.19a48.387 48.387 0 0 0 8.68-8.12l-.5-.46z" fill="#3C4043" stroke="#1F1F1F" stroke-width="4.5" stroke-linecap="round" stroke-linejoin="round"/><path fill-rule="evenodd" clip-rule="evenodd" d="M958.783 272.262c.041.039.079.078.113.117a1.868 1.868 0 0 1-.161.026 2.002 2.002 0 0 0 .048-.143zm-1.515-.51c-.056.007-.11.015-.16.026.034.038.071.078.112.117l.023-.072.025-.071zm-2.157-.646c-.244.725-.384 1.518-.343 2.258.02.363.091.835.308 1.306.22.476.69 1.14 1.57 1.436.88.297 1.656.052 2.119-.195a3.588 3.588 0 0 0 1.035-.853c.481-.565.848-1.281 1.092-2.007.244-.725.385-1.518.343-2.258a3.58 3.58 0 0 0-.308-1.306c-.22-.476-.69-1.14-1.57-1.437-.88-.296-1.655-.051-2.119.196a3.588 3.588 0 0 0-1.035.853c-.48.565-.848 1.281-1.092 2.007z" fill="#1F1F1F"/><path d="M718.71 842.5c-1.56-58.77-8.3-175-8.3-175M43.72 709.06H261.9" stroke="#1F1F1F" stroke-width="4.5" stroke-linecap="round" stroke-linejoin="round"/></svg>